<svg xmlns="http://www.w3.org/2000/svg" version="1.1" xmlns:xlink="http://www.w3.org/1999/xlink" xmlns:svgjs="http://svgjs.dev/svgjs" width="1000" height="1000"><style>
    #light-icon {
      display: inline;
    }
    #dark-icon {
      display: none;
    }

    @media (prefers-color-scheme: dark) {
      #light-icon {
        display: none;
      }
      #dark-icon {
        display: inline;
      }
    }
  </style><g id="light-icon"><svg xmlns="http://www.w3.org/2000/svg" version="1.1" xmlns:xlink="http://www.w3.org/1999/xlink" xmlns:svgjs="http://svgjs.dev/svgjs" width="1000" height="1000"><g><g transform="matrix(1.25,0,0,1.25,0,0)"><svg xmlns="http://www.w3.org/2000/svg" version="1.1" xmlns:xlink="http://www.w3.org/1999/xlink" xmlns:svgjs="http://svgjs.dev/svgjs" width="800px" height="800px"><svg version="1.1" id="Capa_1" xmlns="http://www.w3.org/2000/svg" xmlns:xlink="http://www.w3.org/1999/xlink" x="0px" y="0px" width="800px" height="800px" viewBox="0 0 800 800" enable-background="new 0 0 800 800" xml:space="preserve">
<path fill="#284B63" d="M668.277,241.671l22.014-34.347c0.787-1.23,1.451-2.506,2.043-3.803c0.492-1.074,0.938-2.163,1.295-3.273
	c0.306-0.944,0.545-1.901,0.753-2.862c0.332-1.532,0.557-3.079,0.646-4.631c0.051-0.841,0.063-1.684,0.044-2.524
	c-0.19-7.57-3.209-15.021-8.875-20.682c-0.135-0.134-0.269-0.269-0.403-0.402c-0.012-0.013-0.024-0.022-0.035-0.034
	c-0.677-0.674-1.384-1.305-2.108-1.904c-0.249-0.206-0.508-0.388-0.763-0.582c-0.501-0.389-1.004-0.77-1.524-1.122
	c-0.31-0.209-0.624-0.4-0.94-0.598c-0.486-0.304-0.976-0.6-1.475-0.872c-0.338-0.186-0.679-0.36-1.021-0.533
	c-0.498-0.249-1.002-0.481-1.51-0.702c-0.351-0.15-0.701-0.3-1.056-0.438c-0.527-0.204-1.06-0.387-1.597-0.562
	c-0.345-0.112-0.688-0.23-1.036-0.331c-0.595-0.17-1.196-0.309-1.798-0.443c-0.296-0.064-0.588-0.146-0.886-0.201
	c-0.898-0.171-1.803-0.305-2.711-0.394c-0.108-0.009-0.219-0.009-0.326-0.019c-0.809-0.07-1.617-0.113-2.428-0.118
	c-0.064,0-0.129-0.01-0.194-0.01c-0.648,0-1.301,0.029-1.951,0.069c-0.069,0.005-0.137,0.003-0.206,0.008
	c-0.796,0.058-1.59,0.15-2.379,0.271c-0.249,0.038-0.494,0.091-0.743,0.136c-0.544,0.097-1.083,0.199-1.624,0.326
	c-0.297,0.069-0.589,0.151-0.884,0.23c-0.492,0.13-0.979,0.271-1.466,0.427c-0.304,0.099-0.606,0.202-0.908,0.31
	c-0.479,0.17-0.952,0.357-1.425,0.552c-0.29,0.119-0.58,0.237-0.865,0.369c-0.505,0.228-1.005,0.479-1.501,0.738
	c-0.24,0.125-0.481,0.239-0.72,0.372c-0.726,0.402-1.443,0.831-2.146,1.299l-17.505,11.431
	C569.466,95.649,472.965,43.022,362.665,43.022v0.611c-105.505,0.28-194.416,75.712-194.416,168.402
	c0,0.913,0.269,1.811,0.336,2.704c-0.067,0.897-0.036,1.794-0.036,2.705c0,34.124,11.252,66.387,31.594,90.838
	c21.939,26.376,51.848,40.902,84.166,40.902c0.117,0,0.245-0.018,0.362-0.018s0.237,0.018,0.354,0.018
	c51.999,0,92.731-33.683,92.731-76.681c0-19.863-16.101-35.968-35.965-35.968c-19.252,0-34.973,15.128-35.922,34.146
	c-2.084,2.187-9.28,6.564-20.837,6.564c-0.118,0-0.23,0.018-0.348,0.018c-0.118,0-0.23-0.018-0.349-0.018
	c-24.124,0-43.75-26.826-43.75-59.802c0-0.913-0.07-1.81-0.137-2.705c0.066-0.896,0.137-1.793,0.137-2.704
	c0-53.201,55.393-96.479,123.479-96.479c1.997,0,3.941-0.204,5.851-0.518c81.483,1.987,153.859,41.545,200.423,101.968
	l-45.158,30.177L362.202,356.098l0,0l0,0l0,0L250.737,515.842c-2.275-0.303-4.702-0.492-7.322-0.492
	c-24.067,0-50.448,14.15-78.412,42.111c-59.519,59.519-61.408,176.737-61.461,181.701c-0.051,4.831,1.849,9.36,5.26,12.778
	c3.375,3.378,7.952,5.037,12.724,5.037c0.055,0,0.112,0,0.168,0c4.572,0,104.342-1.354,166.618-47.957h75.75
	c183.285,0,332.399-149.382,332.399-332.999C696.463,328.24,686.397,282.786,668.277,241.671z M367.13,411.891l80.409,80.406
	l-108.233,71.974l-46.24-46.237L367.13,411.891z M364.063,637.086h-21.269c4.182-13.86,3.491-24.882,1.392-32.867l159.847-106.294
	l114.323-178.367c4.028,18.19,6.172,37.08,6.172,56.464C624.528,519.974,507.684,637.086,364.063,637.086z"></path>
</svg></svg></g></g></svg></g><g id="dark-icon"><svg xmlns="http://www.w3.org/2000/svg" version="1.1" xmlns:xlink="http://www.w3.org/1999/xlink" xmlns:svgjs="http://svgjs.dev/svgjs" width="1000" height="1000"><g clip-path="url(#SvgjsClipPath1022)"><rect width="1000" height="1000" fill="#ffffff"></rect><g transform="matrix(1.125,0,0,1.125,50,50)"><svg xmlns="http://www.w3.org/2000/svg" version="1.1" xmlns:xlink="http://www.w3.org/1999/xlink" xmlns:svgjs="http://svgjs.dev/svgjs" width="800px" height="800px"><svg version="1.1" id="Capa_1" xmlns="http://www.w3.org/2000/svg" xmlns:xlink="http://www.w3.org/1999/xlink" x="0px" y="0px" width="800px" height="800px" viewBox="0 0 800 800" enable-background="new 0 0 800 800" xml:space="preserve">
<path fill="#284B63" d="M668.277,241.671l22.014-34.347c0.787-1.23,1.451-2.506,2.043-3.803c0.492-1.074,0.938-2.163,1.295-3.273
	c0.306-0.944,0.545-1.901,0.753-2.862c0.332-1.532,0.557-3.079,0.646-4.631c0.051-0.841,0.063-1.684,0.044-2.524
	c-0.19-7.57-3.209-15.021-8.875-20.682c-0.135-0.134-0.269-0.269-0.403-0.402c-0.012-0.013-0.024-0.022-0.035-0.034
	c-0.677-0.674-1.384-1.305-2.108-1.904c-0.249-0.206-0.508-0.388-0.763-0.582c-0.501-0.389-1.004-0.77-1.524-1.122
	c-0.31-0.209-0.624-0.4-0.94-0.598c-0.486-0.304-0.976-0.6-1.475-0.872c-0.338-0.186-0.679-0.36-1.021-0.533
	c-0.498-0.249-1.002-0.481-1.51-0.702c-0.351-0.15-0.701-0.3-1.056-0.438c-0.527-0.204-1.06-0.387-1.597-0.562
	c-0.345-0.112-0.688-0.23-1.036-0.331c-0.595-0.17-1.196-0.309-1.798-0.443c-0.296-0.064-0.588-0.146-0.886-0.201
	c-0.898-0.171-1.803-0.305-2.711-0.394c-0.108-0.009-0.219-0.009-0.326-0.019c-0.809-0.07-1.617-0.113-2.428-0.118
	c-0.064,0-0.129-0.01-0.194-0.01c-0.648,0-1.301,0.029-1.951,0.069c-0.069,0.005-0.137,0.003-0.206,0.008
	c-0.796,0.058-1.59,0.15-2.379,0.271c-0.249,0.038-0.494,0.091-0.743,0.136c-0.544,0.097-1.083,0.199-1.624,0.326
	c-0.297,0.069-0.589,0.151-0.884,0.23c-0.492,0.13-0.979,0.271-1.466,0.427c-0.304,0.099-0.606,0.202-0.908,0.31
	c-0.479,0.17-0.952,0.357-1.425,0.552c-0.29,0.119-0.58,0.237-0.865,0.369c-0.505,0.228-1.005,0.479-1.501,0.738
	c-0.24,0.125-0.481,0.239-0.72,0.372c-0.726,0.402-1.443,0.831-2.146,1.299l-17.505,11.431
	C569.466,95.649,472.965,43.022,362.665,43.022v0.611c-105.505,0.28-194.416,75.712-194.416,168.402
	c0,0.913,0.269,1.811,0.336,2.704c-0.067,0.897-0.036,1.794-0.036,2.705c0,34.124,11.252,66.387,31.594,90.838
	c21.939,26.376,51.848,40.902,84.166,40.902c0.117,0,0.245-0.018,0.362-0.018s0.237,0.018,0.354,0.018
	c51.999,0,92.731-33.683,92.731-76.681c0-19.863-16.101-35.968-35.965-35.968c-19.252,0-34.973,15.128-35.922,34.146
	c-2.084,2.187-9.28,6.564-20.837,6.564c-0.118,0-0.23,0.018-0.348,0.018c-0.118,0-0.23-0.018-0.349-0.018
	c-24.124,0-43.75-26.826-43.75-59.802c0-0.913-0.07-1.81-0.137-2.705c0.066-0.896,0.137-1.793,0.137-2.704
	c0-53.201,55.393-96.479,123.479-96.479c1.997,0,3.941-0.204,5.851-0.518c81.483,1.987,153.859,41.545,200.423,101.968
	l-45.158,30.177L362.202,356.098l0,0l0,0l0,0L250.737,515.842c-2.275-0.303-4.702-0.492-7.322-0.492
	c-24.067,0-50.448,14.15-78.412,42.111c-59.519,59.519-61.408,176.737-61.461,181.701c-0.051,4.831,1.849,9.36,5.26,12.778
	c3.375,3.378,7.952,5.037,12.724,5.037c0.055,0,0.112,0,0.168,0c4.572,0,104.342-1.354,166.618-47.957h75.75
	c183.285,0,332.399-149.382,332.399-332.999C696.463,328.24,686.397,282.786,668.277,241.671z M367.13,411.891l80.409,80.406
	l-108.233,71.974l-46.24-46.237L367.13,411.891z M364.063,637.086h-21.269c4.182-13.86,3.491-24.882,1.392-32.867l159.847-106.294
	l114.323-178.367c4.028,18.19,6.172,37.08,6.172,56.464C624.528,519.974,507.684,637.086,364.063,637.086z"></path>
</svg></svg></g></g><defs><clipPath id="SvgjsClipPath1022"><rect width="1000" height="1000" x="0" y="0" rx="350" ry="350"></rect></clipPath></defs></svg></g></svg>